# xmcd
#
# Track frame offsets:
# 150
# 13497
# 26529
# 43430
# 59194
# 76123
# 89354
# 102984
# 117840
# 135112
# 149079
# 161557
# 175276
# 191026
# 204026
#
# Disc length: 2958 seconds
#
#
# Revision: 0
# Processed by: cddbd v1.5.2PL0 Copyright (c) Steve Scherf et al.
# Submitted via: FreeRIP 2.95 
#
DISCID=d40b8c0f
DTITLE=SUCO DE PIMENTA - EM RÍTMO DE ARROCHA
DYEAR=2007
DGENRE=ARROCHA
TTITLE0=LOCUTOR
TTITLE1=QUEM DIRIA HEIN
TTITLE2=CORPO E ALMA
TTITLE3=A PRIMEIRA LETRA
TTITLE4=SE QUISER
TTITLE5=QUER NAMORAR COMIGO
TTITLE6=TÁ FALTANDO AMOR
TTITLE7=PORTA RETRATO
TTITLE8=NÃO TEM DIA NÃO TEM HORA
TTITLE9=LA BELLA LUNA
TTITLE10=É AMOR DEMAIS
TTITLE11=QUERO TER VOCÊ
TTITLE12=DESEJO DE AMAR
TTITLE13=TÁ NO MEU CORAÇÃO
TTITLE14=UM ANJO
EXTD=
EXTT0=
EXTT1=
EXTT2=
EXTT3=
EXTT4=
EXTT5=
EXTT6=
EXTT7=
EXTT8=
EXTT9=
EXTT10=
EXTT11=
EXTT12=
EXTT13=
EXTT14=
PLAYORDER=
